Coordinates
version=1
nRows=22
nColumns=24
inDegrees=yes

Units are S.I. units (second, meters, Newtons, ...)
Angles are in degrees.

endheader
time	pelvis_tilt	pelvis_list	pelvis_rotation	pelvis_tx	pelvis_ty	pelvis_tz	hip_flexion_r	hip_adduction_r	hip_rotation_r	knee_angle_r	ankle_angle_r	subtalar_angle_r	mtp_angle_r	hip_flexion_l	hip_adduction_l	hip_rotation_l	knee_angle_l	ankle_angle_l	subtalar_angle_l	mtp_angle_l	lumbar_extension	lumbar_bending	lumbar_rotation
      0.45400000	      0.09438632	      3.92998209	      3.51260781	     -0.78428587	      0.98145459	      0.29347306	     27.32683584	     -3.02939708	     -5.97991197	    -14.54643516	      8.48758402	     -1.65166646	      0.35637387	    -17.07583524	      7.66906843	      5.59193910	     -3.86901867	      9.94805073	     -6.27822304	      0.17639976	     -3.87508376	     -2.44817909	     -1.90206777
      0.45816667	      0.03015394	      3.97213988	      3.54876236	     -0.77817907	      0.98072621	      0.29363313	     27.25680989	     -3.00338987	     -6.04658186	    -14.51679185	      8.33275411	     -1.54158486	      0.51515821	    -16.95061750	      7.68536320	      5.38554055	     -4.72330957	     10.13653676	     -5.87477368	      0.16771945	     -3.72841668	     -2.50120984	     -1.94094550
      0.46233333	     -0.00893682	      3.99617924	      3.58494272	     -0.77203150	      0.98008173	      0.29378739	     27.14492560	     -2.95716444	     -6.08610834	    -14.52653516	      8.12408040	     -1.45413532	      0.68980854	    -16.81327612	      7.67961658	      5.15671437	     -5.65599384	     10.34224592	     -5.39972358	      0.19381489	     -3.61852392	     -2.52019900	     -1.99784065
      0.46650000	     -0.04053980	      4.01970087	      3.59544372	     -0.76586652	      0.97946133	      0.29397933	     27.04386541	     -2.90154954	     -6.09817683	    -14.63311930	      7.90752617	     -1.42222882	      0.92148435	    -16.64962816	      7.67720173	      4.86584797	     -6.64486355	     10.53413348	     -4.90818412	      0.26428381	     -3.52281241	     -2.52735974	     -2.04257649
      0.47066667	     -0.06710859	      4.02671884	      3.61515929	     -0.75965076	      0.97888765	      0.29417275	     26.91329275	     -2.83006899	     -6.08573207	    -14.74857391	      7.61603651	     -1.43867016	      1.19671808	    -16.46508128	      7.65111802	      4.58435767	     -7.68414395	     10.68275469	     -4.42455557	      0.39040717	     -3.41410108	     -2.53070100	     -2.07623695
      0.47483333	     -0.11053786	      4.04062791	      3.62727191	     -0.75343152	      0.97834563	      0.29438724	     26.79538921	     -2.75730760	     -5.99870397	    -14.89275116	      7.17837971	     -1.73564744	      4.02330728	    -16.23617509	      7.63602339	      4.34301836	     -8.76278928	     10.71998206	     -4.06367907	      1.98737374	     -3.29377930	     -2.53868751	     -2.04145406
      0.47900000	     -0.14896381	      4.03900299	      3.65356871	     -0.74715408	      0.97783215	      0.29455480	     26.67659384	     -2.69345929	     -6.00884501	    -15.09894177	      6.78709953	     -1.63212077	      4.06950080	    -15.98451529	      7.60133491	      4.11602669	     -9.90378145	     10.76057369	     -3.68680907	      2.04747939	     -3.16208500	     -2.52455656	     -2.11153257
      0.48316667	     -0.17773656	      4.02867336	      3.64285116	     -0.74087908	      0.97735028	      0.29480764	     26.56712724	     -2.59831647	     -5.93085955	    -15.37851089	      6.39306134	     -1.78506104	      4.15691477	    -15.70069213	      7.55687847	      3.80720263	    -11.10707195	     10.77517074	     -3.25579480	      2.18669208	     -3.05134277	     -2.49213198	     -2.12115915
      0.48733333	     -0.21362823	      4.00928951	      3.64038364	     -0.73459362	      0.97691243	      0.29505232	     26.44734421	     -2.49411593	     -5.81144339	    -15.65092105	      5.94430185	     -2.00693891	      4.26825820	    -15.38281153	      7.50208089	      3.55263185	    -12.35861993	     10.70650663	     -2.88797374	      2.39214522	     -2.92522307	     -2.45833088	     -2.11471682
      0.49150000	     -0.25184008	      3.98266298	      3.62951534	     -0.72830678	      0.97649182	      0.29532588	     26.33995840	     -2.38172942	     -5.67411193	    -15.96568634	      5.47814702	     -2.27207494	      4.40332836	    -15.02143884	      7.43699934	      3.28220777	    -13.67408237	     10.58607358	     -2.53296820	      2.68112989	     -2.79769198	     -2.41521038	     -2.09342500
      0.49566667	     -0.29661808	      3.94772914	      3.61402724	     -0.72202520	      0.97610362	      0.29561231	     26.24485412	     -2.26092013	     -5.51374861	    -16.30909110	      4.99943789	     -2.58961986	      4.55552661	    -14.61178704	      7.36223857	      3.01960872	    -15.05401096	     10.39731377	     -2.20814425	      3.05801724	     -2.66152852	     -2.36337284	     -2.06321773
      0.49983333	     -0.34908150	      3.90617106	      3.59398685	     -0.71575830	      0.97572471	      0.29591391	     26.16938289	     -2.13531423	     -5.33908856	    -16.68837422	      4.51577370	     -2.92331248	      4.70428144	    -14.15226209	      7.28031099	      2.77248087	    -16.50258212	     10.13991687	     -1.92203886	      3.49170604	     -2.51751361	     -2.30408942	     -2.01818324
      0.50400000	     -0.38848971	      3.84240300	      3.56621474	     -0.70949378	      0.97539740	      0.29625483	     26.08333531	     -1.98156601	     -5.14233272	    -17.08746215	      4.06394555	     -3.34159828	      4.87711571	    -13.65840377	      7.16446342	      2.48548670	    -18.01939670	      9.81074178	     -1.59815780	      4.09048862	     -2.38815108	     -2.21843774	     -1.95653285
      0.50816667	     -0.40862327	      3.76232538	      3.54011421	     -0.70321385	      0.97515834	      0.29658628	     25.96268978	     -1.81465632	     -4.94220385	    -17.46448941	      3.57431382	     -3.75842970	      6.15041738	    -13.16884313	      7.03503293	      2.27571471	    -19.53270033	      9.21242577	     -1.53238401	      9.41341855	     -2.26992143	     -2.11103339	     -1.87253500
      0.51233333	     -0.46427777	      3.68609406	      3.51373450	     -0.69700944	      0.97483845	      0.29692322	     25.93454158	     -1.66890744	     -4.79285399	    -17.95728283	      3.16550490	     -4.01946713	      6.14755864	    -12.55660593	      6.89883414	      1.99956423	    -21.20845032	      8.76772829	     -1.22339711	      9.50845174	     -2.13109935	     -2.01296824	     -1.82520918
      0.51650000	     -0.51180309	      3.58236314	      3.49442805	     -0.69081092	      0.97458518	      0.29728163	     25.87347653	     -1.48920212	     -4.60303247	    -18.40513292	      2.78373400	     -4.32120004	      6.13924226	    -11.91031105	      6.72832104	      1.75657159	    -22.93146396	      8.16895173	     -0.99832137	      9.63767736	     -1.98537249	     -1.89036888	     -1.74663575
      0.52066667	     -0.55325858	      3.44707062	      3.45944044	     -0.68465780	      0.97433907	      0.29769486	     25.82922694	     -1.26723429	     -4.38696443	    -18.90448429	      2.49881378	     -4.76191469	      6.12199130	    -11.21146592	      6.51114574	      1.46002293	    -24.73981211	      7.54688886	     -0.71938627	      9.84848999	     -1.85934857	     -1.72939789	     -1.65730815
      0.52483333	     -0.57487289	      3.29887383	      3.40634698	     -0.67855654	      0.97409671	      0.29813852	     25.79411064	     -1.02865100	     -4.17484162	    -19.46548835	      2.26833722	     -5.26065022	      6.08617915	    -10.48569841	      6.27222135	      1.13643388	    -26.61171735	      6.88203083	     -0.44601205	     10.17631704	     -1.77048524	     -1.53753338	     -1.55883140
      0.52900000	     -0.55140323	      3.09929787	      3.38600691	     -0.67245286	      0.97398869	      0.29859298	     25.66546717	     -0.73291260	     -3.94030749	    -19.94965253	      2.14530621	     -5.92162232	      5.98150653	     -9.77751455	      5.95594992	      0.86181673	    -28.51042766	      6.06233353	     -0.15289447	     10.94679528	     -1.72736495	     -1.30464341	     -1.43842016
      0.53316667	     -0.54648998	      2.89167267	      3.34101456	     -0.66639404	      0.97382559	      0.29902909	     25.59437900	     -0.44472934	     -3.78272849	    -20.49589349	      2.01651423	     -6.14780319	      5.12915967	     -9.00334079	      5.63622578	      0.56684067	    -30.45694204	      5.13627139	     -0.10653045	     16.05157949	     -1.66189935	     -1.04287633	     -1.33531916
      0.53733333	     -0.53893794	      2.68645573	      3.29054781	     -0.66038744	      0.97366587	      0.29948787	     25.53915709	     -0.15965906	     -3.63258986	    -21.08308815	      1.98118262	     -6.38920481	      5.11224407	     -8.19691409	      5.30945219	      0.27780270	    -32.44811214	      4.19304912	      0.09024663	     16.09921269	     -1.60434305	     -0.80050316	     -1.24827243
      0.54150000	     -0.52056432	      2.43965155	      3.26452155	     -0.65442486	      0.97355817	      0.29994875	     25.44406361	      0.17261167	     -3.46476585	    -21.61691046	      2.00240360	     -6.83841505	      5.05029643	     -7.36294077	      4.92443149	      0.02708071	    -34.47648273	      3.18640363	      0.27199700	     16.24418946	     -1.56413960	     -0.51310190	     -1.13188045
